#!OML:ASF F:\VICON\USERDATA\INSTALL\rory3\rory3.ASF
:FULLY-SPECIFIED
:DEGREES
4729
root -0.544604 14.803 -17.7755 -536.221 -41.2772 528.455
lowerback 17.056 2.62401 -10.4978
upperback -0.314372 1.06763 -1.37294
thorax -10.1765 0.938977 4.17861
lowerneck -10.1368 -8.63819 -5.42222
upperneck 18.8064 -12.9905 6.93737
head 8.31712 -6.12456 1.76638
rclavicle -4.83544e-014 6.75868e-015
rhumerus 50.4316 34.9963 -39.3067
rradius 60.7267
rwrist -66.3971
rhand -1.75842 7.5337
rfingers 7.12502
rthumb 23.9051 -20.9984
lclavicle -4.83544e-014 6.75868e-015
lhumerus 8.53158 -38.3826 75.4238
lradius 117.826
lwrist -17.5471
lhand -18.8441 11.06
lfingers 7.12502
lthumb 7.45561 40.9086
rfemur -37.0511 -18.3491 6.23825
rtibia 66.3115
rfoot -21.6783 -5.87448
rtoes 6.61813
lfemur -6.28688 5.36436 -4.72517
ltibia 31.7668
lfoot -18.6984 -11.079
ltoes -20.7669
4730
root -0.542553 14.8067 -17.776 -536.334 -41.1375 528.614
lowerback 17.1797 2.60257 -10.272
upperback -0.405289 1.05462 -1.45695
thorax -10.3396 0.928933 3.95833
lowerneck -10.1786 -8.6056 -5.12531
upperneck 18.8786 -13.0017 6.88506
head 8.32584 -6.11599 1.69898
rclavicle 1.14612e-014 1.92821e-014
rhumerus 50.344 35.0477 -39.1213
rradius 61.062
rwrist -66.0326
rhand -2.22989 7.15385
rfingers 7.12502
rthumb 23.4529 -21.4368
lclavicle 1.14612e-014 1.92821e-014
lhumerus 8.35531 -38.621 75.2841
lradius 117.81
lwrist -17.669
lhand -18.6237 11.3083
lfingers 7.12502
lthumb 7.66837 41.1493
rfemur -37.0841 -18.1479 6.41616
rtibia 66.2811
rfoot -21.6616 -5.96372
rtoes 6.71597
lfemur -6.13577 5.27954 -4.60374
ltibia 31.6812
lfoot -19.1298 -10.9679
ltoes -20.8303
4731
root -0.545204 14.8033 -17.7795 -536.223 -41.0079 528.386
lowerback 17.2415 2.63508 -10.2932
upperback -0.449538 1.06016 -1.60461
thorax -10.4242 0.930059 3.80353
lowerneck -10.3658 -8.64553 -4.89541
upperneck 19.0991 -13.0974 6.76242
head 8.41569 -6.14993 1.59927
rclavicle -1.67352e-014 1.68967e-014
rhumerus 50.0342 34.8767 -39.3194
rradius 61.0763
rwrist -65.9893
rhand -2.48899 7.07243
rfingers 7.12502
rthumb 23.2043 -21.5497
lclavicle -1.67352e-014 1.68967e-014
lhumerus 8.27976 -38.921 75.2555
lradius 117.757
lwrist -17.5393
lhand -18.6275 11.2763
lfingers 7.12502
lthumb 7.6647 41.1174
rfemur -37.1276 -18.1965 6.20548
rtibia 66.3376
rfoot -21.6043 -5.87345
rtoes 6.52598
lfemur -5.99915 5.27095 -4.85133
ltibia 31.559
lfoot -19.3569 -11.1171
ltoes -21.445
4732
root -0.549528 14.7998 -17.7831 -536.133 -40.8661 528.155
lowerback 17.2796 2.63348 -10.3304
upperback -0.46352 1.02242 -1.74191
thorax -10.4555 0.90823 3.68193
lowerneck -10.3826 -8.62152 -4.92791
upperneck 19.1834 -13.1093 6.90701
head 8.46078 -6.14587 1.64695
rclavicle 9.31244e-014 -2.94201e-014
rhumerus 49.7987 34.7482 -39.7706
rradius 60.8066
rwrist -65.6527
rhand -4.02535 7.3362
rfingers 7.12502
rthumb 21.7296 -21.4642
lclavicle 9.31244e-014 -2.94201e-014
lhumerus 8.28447 -39.0731 75.2099
lradius 117.707
lwrist -17.2639
lhand -18.6986 10.8197
lfingers 7.12502
lthumb 7.59606 40.6632
rfemur -37.1654 -18.2895 5.96831
rtibia 66.4049
rfoot -21.5419 -5.73473
rtoes 6.13961
lfemur -5.82784 5.21795 -5.1039
ltibia 31.4515
lfoot -19.373 -11.3661
ltoes -20.6121
4733
root -0.554464 14.7987 -17.7798 -536.03 -40.7703 527.965
lowerback 17.3953 2.58654 -10.2621
upperback -0.536348 0.933148 -1.88804
thorax -10.5873 0.863294 3.50237
lowerneck -10.2104 -8.61911 -5.01594
upperneck 19.1352 -13.1422 7.08593
head 8.43464 -6.16117 1.72294
rclavicle -3.5775e-014 2.37548e-014
rhumerus 49.5958 34.6886 -40.1453
rradius 60.7008
rwrist -65.5279
rhand -4.99084 7.3325
rfingers 7.12502
rthumb 20.8022 -21.5724
lclavicle -3.5775e-014 2.37548e-014
lhumerus 8.1564 -39.1925 75.2481
lradius 117.718
lwrist -17.2893
lhand -18.579 10.7048
lfingers 7.12502
lthumb 7.71149 40.5442
rfemur -37.1859 -18.3861 5.76598
rtibia 66.438
rfoot -21.4925 -5.58699
rtoes 5.69883
lfemur -5.70503 5.02218 -5.35318
ltibia 31.3697
lfoot -19.6305 -11.2074
ltoes -19.6038
4734
root -0.558331 14.7965 -17.7786 -536.003 -40.6621 527.915
lowerback 17.5118 2.50426 -10.1353
upperback -0.623265 0.818711 -1.975
thorax -10.7321 0.807953 3.36204
lowerneck -10.2375 -8.5898 -5.08754
upperneck 19.2132 -13.1053 7.10694
head 8.46974 -6.14606 1.74258
rclavicle 2.99109e-014 9.0447e-015
rhumerus 49.5645 34.7358 -40.2379
rradius 60.7675
rwrist -65.7174
rhand -5.00898 7.33711
rfingers 7.12502
rthumb 20.7848 -21.5697
lclavicle 2.99109e-014 9.0447e-015
lhumerus 8.0349 -39.23 75.1902
lradius 117.712
lwrist -17.2598
lhand -18.3358 10.8629
lfingers 7.12502
lthumb 7.94622 40.6936
rfemur -37.1813 -18.4108 5.70081
rtibia 66.4405
rfoot -21.4324 -5.3434
rtoes 6.37042
lfemur -5.64687 4.9758 -5.47324
ltibia 31.332
lfoot -19.6957 -11.1911
ltoes -21.9355
4735
root -0.555454 14.8012 -17.7832 -536.362 -40.4727 528.306
lowerback 17.7493 2.46421 -9.80331
upperback -0.713964 0.807187 -1.95163
thorax -10.9612 0.799437 3.19843
lowerneck -10.213 -8.54284 -5.11845
upperneck 19.3019 -13.0529 7.10818
head 8.49382 -6.12536 1.75371
rclavicle 5.23829e-014 1.19271e-015
rhumerus 49.4582 34.8274 -40.3939
rradius 60.8264
rwrist -65.807
rhand -5.14401 7.43044
rfingers 7.12502
rthumb 20.655 -21.4905
lclavicle 5.23829e-014 1.19271e-015
lhumerus 7.89051 -39.2683 75.2017
lradius 117.683
lwrist -17.1458
lhand -17.7504 10.7614
lfingers 7.12502
lthumb 8.51123 40.5699
rfemur -37.0328 -18.0918 6.07281
rtibia 66.3481
rfoot -21.5354 -5.39772
rtoes 6.89003
lfemur -5.4262 4.8645 -5.1205
ltibia 31.362
lfoot -19.8743 -11.2527
ltoes -24.337
4736
root -0.545283 14.7976 -17.7806 -536.504 -40.2278 528.47
lowerback 18.0471 2.50868 -9.63167
upperback -0.837671 0.847212 -2.02856
thorax -11.2731 0.820916 2.997
lowerneck -10.1673 -8.55079 -5.11734
upperneck 19.3859 -13.1325 7.28517
head 8.53232 -6.15219 1.80132
rclavicle 2.80488e-014 2.0773e-014
rhumerus 49.1363 34.7551 -40.7203
rradius 60.8632
rwrist -65.5887
rhand -5.40887 7.31206
rfingers 7.12502
rthumb 20.4005 -21.6363
lclavicle 2.80488e-014 2.0773e-014
lhumerus 7.83675 -39.5628 75.1623
lradius 117.647
lwrist -17.2742
lhand -17.633 10.9052
lfingers 7.12502
lthumb 8.62447 40.7091
rfemur -37.1592 -17.7222 6.30943
rtibia 66.3427
rfoot -21.5725 -5.5939
rtoes 6.46039
lfemur -5.23004 4.59331 -4.92599
ltibia 31.378
lfoot -20.179 -11.0402
ltoes -24.6668
4737
root -0.541401 14.7947 -17.7734 -536.551 -40.0239 528.544
lowerback 18.2906 2.50833 -9.40813
upperback -0.964849 0.846982 -2.11296
thorax -11.5517 0.818395 2.76958
lowerneck -10.0899 -8.54563 -5.32106
upperneck 19.5093 -13.1932 7.57584
head 8.59971 -6.17497 1.92086
rclavicle 4.65669e-014 9.34288e-015
rhumerus 48.8292 34.6729 -40.9821
rradius 60.8329
rwrist -65.2464
rhand -5.35066 7.27798
rfingers 7.12502
rthumb 20.4565 -21.6644
lclavicle 4.65669e-014 9.34288e-015
lhumerus 7.65818 -39.7945 75.2417
lradius 117.669
lwrist -17.4212
lhand -17.9424 11.1587
lfingers 7.12502
lthumb 8.32593 40.9746
rfemur -37.3085 -17.5179 6.4239
rtibia 66.3515
rfoot -21.4764 -5.67726
rtoes 6.36281
lfemur -5.15804 4.4238 -4.90979
ltibia 31.3895
lfoot -20.4618 -10.9892
ltoes -24.4101
4738
root -0.552721 14.7974 -17.7767 -536.313 -39.8891 528.229
lowerback 18.0779 2.46027 -9.54246
upperback -0.950325 0.76322 -2.21783
thorax -11.4048 0.774996 2.757
lowerneck -10.0087 -8.48365 -5.2387
upperneck 19.4514 -13.1148 7.55646
head 8.55256 -6.13915 1.91627
rclavicle -8.59744e-015 -9.01985e-015
rhumerus 48.7977 34.6036 -41.0388
rradius 60.8538
rwrist -65.0356
rhand -5.4992 7.37406
rfingers 7.12502
rthumb 20.3137 -21.5836
lclavicle -8.59744e-015 -9.01985e-015
lhumerus 7.61758 -39.7428 75.2352
lradius 117.719
lwrist -17.3334
lhand -18.0417 11.1457
lfingers 7.12502
lthumb 8.23009 40.9654
rfemur -37.3483 -17.7074 6.09954
rtibia 66.4011
rfoot -21.3965 -5.35609
rtoes 6.57054
lfemur -5.05751 4.30403 -5.29718
ltibia 31.3358
lfoot -20.7068 -10.95
ltoes -24.4425
4739
root -0.559754 14.7953 -17.7798 -536.208 -39.774 528.072
lowerback 17.7959 2.4182 -9.72244
upperback -0.847864 0.709732 -2.20898
thorax -11.1235 0.746059 2.89091
lowerneck -9.99419 -8.47808 -5.21042
upperneck 19.2912 -13.0774 7.52724
head 8.48903 -6.12274 1.91041
rclavicle -6.86273e-015 7.8023e-015
rhumerus 48.9543 34.5064 -40.8506
rradius 60.9645
rwrist -65.0338
rhand -5.66509 7.35865
rfingers 7.12502
rthumb 20.1543 -21.6159
lclavicle -6.86273e-015 7.8023e-015
lhumerus 7.77016 -39.6327 75.2022
lradius 117.655
lwrist -17.2898
lhand -18.1929 10.9242
lfingers 7.12502
lthumb 8.08417 40.7496
rfemur -37.4055 -17.8521 5.92669
rtibia 66.4391
rfoot -21.3612 -5.1458
rtoes 6.56582
lfemur -4.9319 4.2107 -5.49652
ltibia 31.2615
lfoot -20.8664 -10.9537
ltoes -25.0781
4740
root -0.563303 14.7906 -17.7779 -536.095 -39.6479 527.895
lowerback 17.8338 2.40515 -9.74607
upperback -0.913802 0.664073 -2.29869
thorax -11.2147 0.726676 2.81501
lowerneck -9.9905 -8.45613 -5.22954
upperneck 19.4031 -13.074 7.55911
head 8.52953 -6.12097 1.92234
rclavicle 6.54095e-014 4.77083e-015
rhumerus 48.8013 34.4478 -40.9814
rradius 60.9516
rwrist -64.9608
rhand -5.349 7.49973
rfingers 7.12502
rthumb 20.4581 -21.4425
lclavicle 6.54095e-014 4.77083e-015
lhumerus 7.74055 -39.7542 75.2753
lradius 117.611
lwrist -17.2729
lhand -18.3085 10.8308
lfingers 7.12502
lthumb 7.97261 40.6605
rfemur -37.4941 -17.9161 5.7407
rtibia 66.487
rfoot -21.3113 -4.8948
rtoes 7.03364
lfemur -4.80765 4.07214 -5.70774
ltibia 31.1759
lfoot -20.9609 -10.8717
ltoes -25.5124
